<svg width="188" height="187" viewBox="0 0 188 187" fill="none" xmlns="http://www.w3.org/2000/svg">
<path d="M86.7915 63.0205C86.7915 61.1972 87.5158 59.4485 88.8051 58.1592C90.0944 56.8699 91.8431 56.1456 93.6664 56.1456C95.4898 56.1456 97.2384 56.8699 98.5277 58.1592C99.817 59.4485 100.541 61.1972 100.541 63.0205H86.7915Z" stroke="#FF6275" stroke-linecap="round" stroke-linejoin="round"/>
<path d="M85.646 63.0209H101.687" stroke="#FF6275" stroke-linecap="round" stroke-linejoin="round"/>
<path d="M93.666 55.0001V56.1459" stroke="#FF6275" stroke-linecap="round" stroke-linejoin="round"/>
<path d="M84.5 71.0415L87.3646 68.2533L91.3749 71.6908L100.589 65.0366C100.709 64.95 100.805 64.835 100.87 64.7019C100.934 64.5688 100.965 64.4218 100.959 64.274C100.952 64.1262 100.91 63.9823 100.834 63.8551C100.758 63.728 100.652 63.6216 100.525 63.5455C100.008 63.2351 99.4178 63.0663 98.8144 63.0563C98.211 63.0462 97.6155 63.1952 97.088 63.4882L94.8506 64.7295C94.1874 65.0906 93.4256 65.2285 92.6779 65.1227C91.9303 65.0168 91.2366 64.673 90.6996 64.1421L90.249 63.6922C89.9087 63.3531 89.4704 63.1295 88.9962 63.053C88.5219 62.9765 88.0356 63.051 87.6059 63.2659C87.5134 63.3123 87.4332 63.38 87.372 63.4635C87.3107 63.5469 87.2702 63.6437 87.2536 63.7458C87.237 63.848 87.245 63.9526 87.2768 64.0511C87.3085 64.1497 87.3632 64.2392 87.4363 64.3124L87.7862 64.6623C88.1854 65.0626 88.4798 65.5552 88.6431 66.0964C88.8065 66.6377 88.8338 67.2109 88.7227 67.7652L88.4386 69.173" stroke="#FF6275" stroke-linecap="round" stroke-linejoin="round"/>
<path d="M78.6967 110L79.3153 103.573H78.3873L75.9128 108.969L64.812 109.072L65.4993 108.419L79.1434 86.8016L78.9716 85.9424H62.6124V92.163H63.4716L65.5681 86.9734L75.8785 86.8703L75.1911 87.489L61.5814 109.038L61.7532 110H78.6967ZM94.659 106.769C93.353 107.594 91.7377 108.282 90.3286 108.282C86.5825 108.282 84.2111 105.567 84.2111 100.996V100.927H94.8652V99.8271C94.8652 96.2184 93.353 93.5034 88.9883 93.5034C84.761 94.3969 81.496 97.112 81.496 102.405C81.496 107.732 85.2421 110.516 89.2288 110.516C91.4284 109.725 93.1812 108.797 95.0027 107.491L94.659 106.769ZM88.3009 94.7062C91.2222 94.7062 91.7721 96.9402 91.7721 99.8614V99.9302L84.2455 100.102C84.4517 96.6996 85.9639 94.7062 88.3009 94.7062ZM100.58 109.966L105.22 110.034L105.323 109.278L101.955 109.003V99.6896L102.333 99.2772C102.814 98.6929 104.533 96.7683 104.911 96.6996H107.969V93.6752H105.598L101.817 98.5898L101.783 93.8127L100.993 93.847L96.6623 95.0499L96.7654 95.7373L99.2055 95.3249V109.072L96.7997 109.313L96.9028 110.034L100.58 109.966ZM116.676 110.516C121.865 109.588 124.89 106.735 124.89 101.649C124.89 97.0089 121.9 93.5034 117.466 93.5034C112.277 94.4657 109.252 97.2495 109.252 102.37C109.252 107.01 112.242 110.516 116.676 110.516ZM117.535 109.381C114.304 109.381 112.174 105.807 112.174 101.649C112.174 97.6275 113.651 94.6719 116.607 94.6719C119.734 94.6719 121.968 97.7306 121.968 102.37C121.968 106.323 120.456 109.381 117.535 109.381Z" fill="#030922"/>
<path d="M49.9358 132C50.0898 132 50.2158 131.874 50.2158 131.72V131.384C50.2158 131.23 50.0898 131.104 49.9358 131.104H45.8618C45.7778 131.104 45.7218 131.048 45.7218 130.964V127.576C45.7218 127.492 45.7778 127.436 45.8618 127.436H49.7538C49.9078 127.436 50.0338 127.31 50.0338 127.156V126.834C50.0338 126.68 49.9078 126.554 49.7538 126.554H45.8618C45.7778 126.554 45.7218 126.498 45.7218 126.414V123.236C45.7218 123.152 45.7778 123.096 45.8618 123.096H49.9078C50.0618 123.096 50.1878 122.97 50.1878 122.816V122.48C50.1878 122.326 50.0618 122.2 49.9078 122.2H45.1058C44.9518 122.2 44.8258 122.326 44.8258 122.48V131.72C44.8258 131.874 44.9518 132 45.1058 132H49.9358ZM52.705 132C52.845 132 52.901 131.944 52.985 131.79L54.945 127.982C54.973 127.926 54.987 127.898 55.015 127.898C55.043 127.898 55.057 127.926 55.085 127.982L57.045 131.79C57.129 131.944 57.185 132 57.325 132H57.787C57.955 132 58.053 131.902 58.053 131.762C58.053 131.678 58.011 131.58 57.955 131.482L55.603 127.044C55.561 126.96 55.547 126.946 55.547 126.904C55.547 126.862 55.561 126.848 55.589 126.792L57.759 122.718C57.815 122.62 57.857 122.522 57.857 122.438C57.857 122.298 57.759 122.2 57.591 122.2H57.157C57.031 122.2 56.975 122.256 56.891 122.41L55.085 125.882C55.057 125.938 55.043 125.966 55.015 125.966C54.987 125.966 54.973 125.938 54.945 125.882L53.139 122.41C53.055 122.256 52.999 122.2 52.873 122.2H52.439C52.271 122.2 52.173 122.298 52.173 122.438C52.173 122.522 52.215 122.62 52.271 122.718L54.441 126.792C54.469 126.848 54.483 126.862 54.483 126.904C54.483 126.946 54.469 126.96 54.427 127.044L52.075 131.482C52.019 131.58 51.977 131.678 51.977 131.762C51.977 131.902 52.075 132 52.243 132H52.705ZM62.8943 132C63.0483 132 63.1743 131.874 63.1743 131.72V123.236C63.1743 123.152 63.2303 123.096 63.3143 123.096H65.9323C66.0863 123.096 66.2123 122.97 66.2123 122.816V122.48C66.2123 122.326 66.0863 122.2 65.9323 122.2H59.4923C59.3383 122.2 59.2123 122.326 59.2123 122.48V122.816C59.2123 122.97 59.3383 123.096 59.4923 123.096H62.1243C62.2083 123.096 62.2643 123.152 62.2643 123.236V131.72C62.2643 131.874 62.3903 132 62.5443 132H62.8943ZM68.4776 132C68.6316 132 68.7576 131.874 68.7576 131.72V128.22C68.7576 128.136 68.8136 128.08 68.8976 128.08H70.4236C70.5776 128.08 70.6476 128.164 70.6896 128.248L72.4816 131.72C72.5656 131.888 72.6636 132 72.8876 132H73.2236C73.3776 132 73.5036 131.874 73.5036 131.72C73.5036 131.636 73.4756 131.58 73.4476 131.524L71.6836 128.22C71.6416 128.136 71.6136 128.066 71.6136 127.982C71.6136 127.884 71.7256 127.828 71.7956 127.8C72.7756 127.408 73.4616 126.4 73.4616 125.14C73.4616 123.376 72.1456 122.2 70.5216 122.2H68.1416C67.9876 122.2 67.8616 122.326 67.8616 122.48V131.72C67.8616 131.874 67.9876 132 68.1416 132H68.4776ZM68.8976 127.184C68.8136 127.184 68.7576 127.128 68.7576 127.044V123.236C68.7576 123.152 68.8136 123.096 68.8976 123.096H70.5216C71.6276 123.096 72.5376 123.88 72.5376 125.14C72.5376 126.26 71.6276 127.184 70.5216 127.184H68.8976ZM75.4468 132C75.5728 132 75.6708 131.93 75.7128 131.79L76.3988 129.424C76.4408 129.284 76.5388 129.228 76.6648 129.228H79.5488C79.6748 129.228 79.7728 129.284 79.8148 129.424L80.5008 131.79C80.5428 131.93 80.6408 132 80.7668 132H81.1168C81.3128 132 81.4108 131.902 81.4108 131.79C81.4108 131.734 81.3968 131.678 81.3828 131.636L78.7228 122.41C78.6808 122.27 78.5828 122.2 78.4568 122.2H77.7568C77.6308 122.2 77.5328 122.27 77.4908 122.41L74.8308 131.636C74.8168 131.678 74.8028 131.734 74.8028 131.79C74.8028 131.902 74.9008 132 75.0968 132H75.4468ZM76.8748 128.36C76.7908 128.36 76.7348 128.318 76.7628 128.206L78.0368 123.446C78.0508 123.39 78.0648 123.362 78.0928 123.362H78.1208C78.1488 123.362 78.1628 123.39 78.1768 123.446L79.4508 128.206C79.4788 128.318 79.4228 128.36 79.3388 128.36H76.8748ZM93.6414 132.14C95.5594 132.14 96.7634 130.838 96.7634 129.144C96.7634 128.99 96.6374 128.864 96.4834 128.864H96.1054C95.9514 128.864 95.8254 128.99 95.8254 129.144C95.8254 130.348 95.0274 131.244 93.6414 131.244C92.8294 131.244 92.0594 130.81 91.6674 129.872C91.4014 129.228 91.3594 128.136 91.3594 127.1C91.3594 126.064 91.4014 124.972 91.6674 124.328C92.0594 123.39 92.8294 122.956 93.6414 122.956C95.0274 122.956 95.8254 123.852 95.8254 125.056C95.8254 125.21 95.9514 125.336 96.1054 125.336H96.4834C96.6374 125.336 96.7634 125.21 96.7634 125.056C96.7634 123.362 95.5594 122.06 93.6414 122.06C92.2554 122.06 91.2614 122.858 90.7994 123.95C90.4774 124.706 90.4074 125.798 90.4074 127.1C90.4074 128.402 90.4914 129.494 90.7994 130.25C91.2474 131.356 92.2554 132.14 93.6414 132.14ZM98.9446 132C99.0986 132 99.2246 131.874 99.2246 131.72V127.576C99.2246 127.492 99.2806 127.436 99.3646 127.436H103.033C103.117 127.436 103.173 127.492 103.173 127.576V131.72C103.173 131.874 103.299 132 103.453 132H103.789C103.943 132 104.069 131.874 104.069 131.72V122.48C104.069 122.326 103.943 122.2 103.789 122.2H103.453C103.299 122.2 103.173 122.326 103.173 122.48V126.4C103.173 126.484 103.117 126.54 103.033 126.54H99.3646C99.2806 126.54 99.2246 126.484 99.2246 126.4V122.48C99.2246 122.326 99.0986 122.2 98.9446 122.2H98.6086C98.4546 122.2 98.3286 122.326 98.3286 122.48V131.72C98.3286 131.874 98.4546 132 98.6086 132H98.9446ZM106.236 132C106.362 132 106.46 131.93 106.502 131.79L107.188 129.424C107.23 129.284 107.328 129.228 107.454 129.228H110.338C110.464 129.228 110.562 129.284 110.604 129.424L111.29 131.79C111.332 131.93 111.43 132 111.556 132H111.906C112.102 132 112.2 131.902 112.2 131.79C112.2 131.734 112.186 131.678 112.172 131.636L109.512 122.41C109.47 122.27 109.372 122.2 109.246 122.2H108.546C108.42 122.2 108.322 122.27 108.28 122.41L105.62 131.636C105.606 131.678 105.592 131.734 105.592 131.79C105.592 131.902 105.69 132 105.886 132H106.236ZM107.664 128.36C107.58 128.36 107.524 128.318 107.552 128.206L108.826 123.446C108.84 123.39 108.854 123.362 108.882 123.362H108.91C108.938 123.362 108.952 123.39 108.966 123.446L110.24 128.206C110.268 128.318 110.212 128.36 110.128 128.36H107.664ZM114.661 132C114.815 132 114.941 131.874 114.941 131.72V128.22C114.941 128.136 114.997 128.08 115.081 128.08H116.607C116.761 128.08 116.831 128.164 116.873 128.248L118.665 131.72C118.749 131.888 118.847 132 119.071 132H119.407C119.561 132 119.687 131.874 119.687 131.72C119.687 131.636 119.659 131.58 119.631 131.524L117.867 128.22C117.825 128.136 117.797 128.066 117.797 127.982C117.797 127.884 117.909 127.828 117.979 127.8C118.959 127.408 119.645 126.4 119.645 125.14C119.645 123.376 118.329 122.2 116.705 122.2H114.325C114.171 122.2 114.045 122.326 114.045 122.48V131.72C114.045 131.874 114.171 132 114.325 132H114.661ZM115.081 127.184C114.997 127.184 114.941 127.128 114.941 127.044V123.236C114.941 123.152 114.997 123.096 115.081 123.096H116.705C117.811 123.096 118.721 123.88 118.721 125.14C118.721 126.26 117.811 127.184 116.705 127.184H115.081ZM124.43 132.14C126.306 132.14 127.482 130.95 127.482 128.99V126.932C127.482 126.778 127.356 126.652 127.202 126.652H124.738C124.584 126.652 124.458 126.778 124.458 126.932V127.268C124.458 127.422 124.584 127.548 124.738 127.548H126.404C126.488 127.548 126.544 127.604 126.544 127.688V128.99C126.544 130.432 125.774 131.244 124.43 131.244C123.59 131.244 122.778 130.81 122.386 129.872C122.12 129.228 122.078 128.136 122.078 127.1C122.078 126.064 122.12 124.972 122.386 124.328C122.778 123.39 123.59 122.956 124.43 122.956C125.774 122.956 126.544 123.796 126.544 124.916C126.544 125.07 126.67 125.196 126.824 125.196H127.202C127.356 125.196 127.482 125.07 127.482 124.916C127.482 123.306 126.306 122.06 124.43 122.06C123.016 122.06 121.994 122.872 121.518 123.95C121.182 124.72 121.126 125.798 121.126 127.1C121.126 128.402 121.182 129.48 121.518 130.25C121.994 131.328 123.016 132.14 124.43 132.14ZM134.606 132C134.76 132 134.886 131.874 134.886 131.72V131.384C134.886 131.23 134.76 131.104 134.606 131.104H130.532C130.448 131.104 130.392 131.048 130.392 130.964V127.576C130.392 127.492 130.448 127.436 130.532 127.436H134.424C134.578 127.436 134.704 127.31 134.704 127.156V126.834C134.704 126.68 134.578 126.554 134.424 126.554H130.532C130.448 126.554 130.392 126.498 130.392 126.414V123.236C130.392 123.152 130.448 123.096 130.532 123.096H134.578C134.732 123.096 134.858 122.97 134.858 122.816V122.48C134.858 122.326 134.732 122.2 134.578 122.2H129.776C129.622 122.2 129.496 122.326 129.496 122.48V131.72C129.496 131.874 129.622 132 129.776 132H134.606ZM139.685 132.14C141.239 132.14 142.695 131.146 142.695 129.34C142.695 127.618 141.575 126.89 140.273 126.512C138.999 126.148 137.893 125.7 137.893 124.524C137.893 123.46 138.649 122.956 139.755 122.956C140.791 122.956 141.575 123.544 141.575 124.72V124.902C141.575 125.056 141.701 125.182 141.855 125.182H142.205C142.359 125.182 142.485 125.056 142.485 124.902V124.72C142.485 123.026 141.323 122.06 139.755 122.06C138.355 122.06 136.941 122.83 136.941 124.524C136.941 126.204 138.229 126.89 139.447 127.24C140.819 127.632 141.743 128.052 141.743 129.34C141.743 130.6 140.889 131.244 139.685 131.244C138.467 131.244 137.599 130.488 137.599 129.2V128.976C137.599 128.822 137.473 128.696 137.319 128.696H136.955C136.801 128.696 136.675 128.822 136.675 128.976V129.2C136.675 131.132 137.963 132.14 139.685 132.14Z" fill="#787878"/>
<path opacity="0.5" d="M94 186C145.086 186 186.5 144.586 186.5 93.5C186.5 42.4137 145.086 1 94 1C42.9137 1 1.5 42.4137 1.5 93.5C1.5 144.586 42.9137 186 94 186Z" stroke="#0F0F0F" stroke-width="1.49254" stroke-linecap="round" stroke-dasharray="0.07 7.46"/>
</svg>
