<svg width="188" height="187" viewBox="0 0 188 187" fill="none" xmlns="http://www.w3.org/2000/svg">
<g clip-path="url(#clip0_67_4262)">
<path fill-rule="evenodd" clip-rule="evenodd" d="M88.2551 54.0134C87.1715 54.2104 86.3913 54.4364 85.8118 54.7211C83.9115 55.6549 82.5389 57.1947 81.8743 59.1384C81.6165 59.8924 81.5003 60.624 81.5 61.4959C81.4991 64.4118 83.1617 66.996 85.859 68.2709C86.521 68.5838 87.6232 68.9157 87.8309 68.8647C88.0461 68.8118 88.1974 68.6294 88.1974 68.4226C88.1974 68.1218 88.0725 68.0102 87.6129 67.9C86.8389 67.7144 85.8798 67.2978 85.3966 66.9373L85.2112 66.799L85.4051 65.8537C85.7625 64.1106 85.6914 64.3152 85.9392 64.3152C86.5246 64.3152 87.0454 64.0077 87.2972 63.5135C87.5098 63.0961 87.4905 62.8233 87.1577 61.5478C86.8427 60.3402 86.7364 60.127 86.3 59.8268L86.0514 59.6558L84.454 59.6405C83.5755 59.6322 82.8249 59.6142 82.7861 59.6006C82.6954 59.5687 82.9179 58.9744 83.2412 58.385C83.8722 57.2345 85.0024 56.1629 86.2054 55.5741C87.0043 55.1832 88.2887 54.8828 89.1574 54.8836C89.5714 54.884 90.5223 55.0202 90.9953 55.1469C91.8809 55.384 92.931 55.9378 93.5437 56.4908L93.8846 56.7985L92.9319 56.8023C91.8684 56.8065 91.685 56.8522 91.3255 57.2027C91.0492 57.4721 91.0004 57.5891 90.7365 58.6164C90.3979 59.9334 90.3785 60.0569 90.4535 60.4105C90.5061 60.6583 90.5728 60.7692 90.8156 61.0127C91.1613 61.3596 91.5164 61.4913 92.1052 61.4913C92.3058 61.4913 92.4703 61.5104 92.4708 61.5337C92.4713 61.557 92.5741 62.1733 92.6995 62.9033C92.9093 64.1242 92.9395 64.2407 93.0773 64.3576C93.1596 64.4275 93.271 64.4846 93.3248 64.4845C93.4945 64.4841 93.7812 64.2754 93.82 64.124C93.8698 63.9301 93.3553 60.9359 93.2434 60.7687C93.1145 60.5759 92.9299 60.5312 92.2615 60.5312C91.696 60.5312 91.6471 60.5221 91.5147 60.3925C91.4305 60.3102 91.3735 60.1898 91.3744 60.096C91.3752 60.0092 91.4901 59.496 91.6297 58.9558C91.8072 58.2689 91.9201 57.9376 92.0051 57.8544C92.1201 57.7417 92.1942 57.7346 93.4108 57.7185L94.695 57.7014L94.9303 58.0856C95.503 59.0208 95.7722 59.8483 95.8743 60.9865C95.9048 61.3257 95.9572 61.6538 95.991 61.7154C96.1343 61.9773 96.4986 62.0175 96.7247 61.7964C96.8725 61.6518 96.8742 61.6404 96.8411 61.048C96.7243 58.9628 95.6863 56.9687 94.0448 55.6765C93.1205 54.9489 92.1971 54.496 91.0265 54.1962C90.4398 54.0459 90.2483 54.0238 89.381 54.0067C88.8412 53.9959 88.3345 53.999 88.2551 54.0134ZM85.8674 60.6563C86.0021 60.7882 86.5283 62.8823 86.4665 63.0405C86.3699 63.2874 86.2315 63.3433 85.6663 63.3638C84.9321 63.3904 84.925 63.3993 84.6806 64.6036C84.5771 65.1128 84.4652 65.6564 84.4319 65.8115L84.3711 66.0934L84.0864 65.7832C83.3246 64.9531 82.7981 63.8851 82.5579 62.6827C82.4555 62.1696 82.4168 60.7312 82.5019 60.5993C82.5391 60.5417 82.8899 60.5297 84.1587 60.5428C85.5881 60.5576 85.7795 60.5703 85.8674 60.6563ZM94.5197 65.2092C94.3609 65.2648 93.9971 65.4382 93.7113 65.5947C93.0899 65.9348 92.9319 66.1249 92.9319 66.5319C92.9319 67.0513 93.009 67.133 94.2678 67.9501C94.8969 68.3584 95.412 68.7051 95.4124 68.7206C95.4129 68.7361 94.8013 68.9871 94.0532 69.2782L92.693 69.8077L91.5567 69.3141C90.9317 69.0427 90.3275 68.808 90.2141 68.7927C89.9866 68.7621 89.7648 68.8564 88.9252 69.3415C88.3512 69.6732 88.184 69.8883 88.184 70.2953C88.184 70.5787 88.2866 70.8315 88.4657 70.9899C88.5912 71.1009 92.0127 73.2657 92.2618 73.3917C92.5493 73.537 92.8901 73.4511 94.5149 72.8231C95.3698 72.4927 96.0755 72.2288 96.0834 72.2365C96.0912 72.2442 95.8634 72.8477 95.5769 73.5775C95.1177 74.7478 95.0594 74.9367 95.083 75.1772C95.129 75.6459 95.4555 75.9534 95.9494 75.9935C96.2303 76.0163 96.3108 75.9927 96.8448 75.7305C97.1676 75.5721 97.5116 75.3597 97.6093 75.2585C97.707 75.1573 98.3525 74.063 99.0438 72.8267L100.301 70.5789L101.998 69.8431C102.931 69.4385 103.792 69.0316 103.912 68.939C104.043 68.8376 104.203 68.6229 104.316 68.3988C104.474 68.0858 104.503 67.966 104.5 67.6427C104.491 66.7103 103.755 66.0096 102.784 66.0096C102.476 66.0096 102.242 66.0859 100.676 66.6968C99.7069 67.0747 98.8867 67.3835 98.8533 67.383C98.8197 67.3825 98.0388 66.9183 97.1179 66.3514C96.197 65.7845 95.3785 65.2882 95.2991 65.2484C95.0348 65.1158 94.8179 65.105 94.5197 65.2092ZM96.3393 66.9738C97.1041 67.4447 97.7222 67.8376 97.7126 67.8468C97.7031 67.856 97.4379 67.9636 97.1233 68.0861L96.5514 68.3087L95.2324 67.4626C94.507 66.9972 93.9139 66.6006 93.9145 66.5813C93.9165 66.52 94.8052 66.0716 94.8785 66.0951C94.917 66.1074 95.5744 66.5028 96.3393 66.9738ZM103.146 67.0234C103.526 67.2133 103.662 67.6734 103.442 68.0265C103.306 68.2455 103.288 68.2543 101.301 69.1168C100.429 69.4951 99.6849 69.8296 99.6468 69.8602C99.6086 69.8909 98.9884 70.968 98.2684 72.2539L96.9593 74.5919L96.5282 74.8233C96.291 74.9507 96.0845 75.0427 96.0694 75.0278C96.0542 75.0129 96.3553 74.2073 96.7386 73.2374C97.1219 72.2676 97.4354 71.4125 97.4354 71.3373C97.4354 71.1478 97.1909 70.9233 96.9844 70.9233C96.8922 70.9233 95.8972 71.2795 94.7733 71.7147C93.6494 72.15 92.689 72.4995 92.6392 72.4913C92.5894 72.4831 91.7794 71.9936 90.8393 71.4034C89.3405 70.4624 89.142 70.3212 89.2267 70.2564C89.2798 70.2159 89.5135 70.0797 89.7459 69.9538L90.1686 69.7249L91.4096 70.274L92.6505 70.8229L92.9211 70.724C93.0699 70.6696 95.2703 69.8122 97.8107 68.8187C100.351 67.8251 102.495 66.9921 102.574 66.9676C102.806 66.8961 102.911 66.9064 103.146 67.0234Z" fill="#FF6275"/>
</g>
<path d="M61.3446 109.966L67.7714 110.034L67.8745 109.313L62.7193 108.935V93.7096H61.9976L54.5741 96.8714L54.9178 97.5932L59.2481 96.2528L59.9699 95.9091L59.9011 96.2184V108.935L54.6428 109.313L54.7116 110.034L61.3446 109.966ZM76.4176 110.516C82.2602 109.381 85.1815 106.494 85.1815 101.683C85.1815 96.9402 81.8478 93.5034 77.2081 93.5034C71.3655 94.7406 68.4443 97.5244 68.4443 102.302C68.4443 107.044 71.7779 110.516 76.4176 110.516ZM77.2425 109.278C73.2558 109.278 71.6405 105.773 71.6405 101.477C71.6405 97.9368 73.187 94.7406 76.3833 94.7406C80.3356 94.7406 82.0196 98.2805 82.0196 102.542C82.0196 106.116 80.4387 109.278 77.2425 109.278ZM95.9174 110.516C101.76 109.381 104.681 106.494 104.681 101.683C104.681 96.9402 101.348 93.5034 96.7079 93.5034C90.8653 94.7406 87.9441 97.5244 87.9441 102.302C87.9441 107.044 91.2778 110.516 95.9174 110.516ZM96.7423 109.278C92.7556 109.278 91.1403 105.773 91.1403 101.477C91.1403 97.9368 92.6868 94.7406 95.8831 94.7406C99.8354 94.7406 101.519 98.2805 101.519 102.542C101.519 106.116 99.9385 109.278 96.7423 109.278ZM112.737 97.6963C117.067 97.0433 118.785 94.9468 118.785 91.5444C118.785 88.1763 116.861 85.7362 113.63 85.7362C109.3 86.4579 107.616 88.4856 107.616 91.8881C107.616 95.2561 109.506 97.6963 112.737 97.6963ZM112.427 110.172L129.405 85.7706H127.858L110.881 110.172H112.427ZM113.424 96.9058C111.018 96.9058 110.021 94.5688 110.021 91.4069C110.021 88.7262 110.915 86.5267 112.977 86.5267C115.383 86.5267 116.345 88.9324 116.345 92.0599C116.345 94.775 115.452 96.9058 113.424 96.9058ZM125.865 110.206C130.195 109.553 131.88 107.457 131.88 104.089C131.88 100.686 129.989 98.2461 126.724 98.2461C122.428 98.9679 120.71 100.996 120.71 104.432C120.71 107.8 122.635 110.206 125.865 110.206ZM126.518 109.45C124.112 109.45 123.116 107.079 123.116 103.917C123.116 101.236 124.009 99.0366 126.071 99.0366C128.477 99.0366 129.439 101.442 129.439 104.57C129.439 107.251 128.546 109.45 126.518 109.45Z" fill="#030922"/>
<path d="M47.4578 132.14C49.3758 132.14 50.5798 130.838 50.5798 129.144C50.5798 128.99 50.4538 128.864 50.2998 128.864H49.9218C49.7678 128.864 49.6418 128.99 49.6418 129.144C49.6418 130.348 48.8438 131.244 47.4578 131.244C46.6458 131.244 45.8758 130.81 45.4838 129.872C45.2178 129.228 45.1758 128.136 45.1758 127.1C45.1758 126.064 45.2178 124.972 45.4838 124.328C45.8758 123.39 46.6458 122.956 47.4578 122.956C48.8438 122.956 49.6418 123.852 49.6418 125.056C49.6418 125.21 49.7678 125.336 49.9218 125.336H50.2998C50.4538 125.336 50.5798 125.21 50.5798 125.056C50.5798 123.362 49.3758 122.06 47.4578 122.06C46.0718 122.06 45.0778 122.858 44.6158 123.95C44.2938 124.706 44.2238 125.798 44.2238 127.1C44.2238 128.402 44.3078 129.494 44.6158 130.25C45.0638 131.356 46.0718 132.14 47.4578 132.14ZM52.355 132C52.481 132 52.579 131.93 52.621 131.79L53.307 129.424C53.349 129.284 53.447 129.228 53.573 129.228H56.457C56.583 129.228 56.681 129.284 56.723 129.424L57.409 131.79C57.451 131.93 57.549 132 57.675 132H58.025C58.221 132 58.319 131.902 58.319 131.79C58.319 131.734 58.305 131.678 58.291 131.636L55.631 122.41C55.589 122.27 55.491 122.2 55.365 122.2H54.665C54.539 122.2 54.441 122.27 54.399 122.41L51.739 131.636C51.725 131.678 51.711 131.734 51.711 131.79C51.711 131.902 51.809 132 52.005 132H52.355ZM53.783 128.36C53.699 128.36 53.643 128.318 53.671 128.206L54.945 123.446C54.959 123.39 54.973 123.362 55.001 123.362H55.029C55.057 123.362 55.071 123.39 55.085 123.446L56.359 128.206C56.387 128.318 56.331 128.36 56.247 128.36H53.783ZM60.7803 132C60.9343 132 61.0603 131.874 61.0603 131.72V128.22C61.0603 128.136 61.1163 128.08 61.2003 128.08H62.7263C62.8803 128.08 62.9503 128.164 62.9923 128.248L64.7843 131.72C64.8683 131.888 64.9663 132 65.1903 132H65.5263C65.6803 132 65.8063 131.874 65.8063 131.72C65.8063 131.636 65.7783 131.58 65.7503 131.524L63.9863 128.22C63.9443 128.136 63.9163 128.066 63.9163 127.982C63.9163 127.884 64.0283 127.828 64.0983 127.8C65.0783 127.408 65.7643 126.4 65.7643 125.14C65.7643 123.376 64.4483 122.2 62.8243 122.2H60.4443C60.2903 122.2 60.1643 122.326 60.1643 122.48V131.72C60.1643 131.874 60.2903 132 60.4443 132H60.7803ZM61.2003 127.184C61.1163 127.184 61.0603 127.128 61.0603 127.044V123.236C61.0603 123.152 61.1163 123.096 61.2003 123.096H62.8243C63.9303 123.096 64.8403 123.88 64.8403 125.14C64.8403 126.26 63.9303 127.184 62.8243 127.184H61.2003ZM70.7736 132C72.2996 132 73.5596 130.768 73.5596 129.144C73.5596 128.346 73.1536 127.45 72.5656 127.002C72.4536 126.918 72.4536 126.792 72.5656 126.694C73.0976 126.232 73.3636 125.448 73.3636 124.804C73.3636 123.292 72.2016 122.2 70.7736 122.2H68.1696C68.0156 122.2 67.8896 122.326 67.8896 122.48V131.72C67.8896 131.874 68.0156 132 68.1696 132H70.7736ZM68.8976 126.442C68.8136 126.442 68.7576 126.386 68.7576 126.302V123.236C68.7576 123.152 68.8136 123.096 68.8976 123.096H70.8296C71.7396 123.096 72.4536 123.852 72.4536 124.776C72.4536 125.7 71.7396 126.442 70.8296 126.442H68.8976ZM68.8976 131.104C68.8136 131.104 68.7576 131.048 68.7576 130.964V127.408C68.7576 127.324 68.8136 127.268 68.8976 127.268H70.7736C71.8236 127.268 72.6636 128.122 72.6636 129.186C72.6636 130.25 71.8236 131.104 70.7736 131.104H68.8976ZM78.1068 132.14C79.4928 132.14 80.5008 131.328 80.9488 130.25C81.2708 129.48 81.3408 128.402 81.3408 127.1C81.3408 125.798 81.2708 124.72 80.9488 123.95C80.5008 122.872 79.4928 122.06 78.1068 122.06C76.7208 122.06 75.7128 122.872 75.2648 123.95C74.9428 124.72 74.8728 125.798 74.8728 127.1C74.8728 128.402 74.9428 129.48 75.2648 130.25C75.7128 131.328 76.7208 132.14 78.1068 132.14ZM78.1068 131.244C77.2948 131.244 76.4968 130.81 76.1328 129.872C75.8808 129.228 75.8248 128.136 75.8248 127.1C75.8248 126.064 75.8808 124.972 76.1328 124.328C76.4968 123.39 77.2948 122.956 78.1068 122.956C78.9188 122.956 79.7168 123.39 80.0808 124.328C80.3328 124.972 80.3888 126.064 80.3888 127.1C80.3888 128.136 80.3328 129.228 80.0808 129.872C79.7168 130.81 78.9188 131.244 78.1068 131.244ZM83.4941 132C83.6481 132 83.7741 131.874 83.7741 131.72V123.754C83.7741 123.684 83.8581 123.67 83.8861 123.726L87.3721 131.762C87.4561 131.958 87.5121 132 87.6661 132H88.3941C88.5481 132 88.6741 131.874 88.6741 131.72V122.48C88.6741 122.326 88.5481 122.2 88.3941 122.2H88.1141C87.9601 122.2 87.8341 122.326 87.8341 122.48V130.376C87.8341 130.446 87.7501 130.46 87.7221 130.404L84.2361 122.438C84.1521 122.242 84.0961 122.2 83.9421 122.2H83.2141C83.0601 122.2 82.9341 122.326 82.9341 122.48V131.72C82.9341 131.874 83.0601 132 83.2141 132H83.4941ZM101.199 132.14C102.585 132.14 103.593 131.328 104.041 130.25C104.363 129.48 104.433 128.402 104.433 127.1C104.433 125.798 104.363 124.72 104.041 123.95C103.593 122.872 102.585 122.06 101.199 122.06C99.8126 122.06 98.8046 122.872 98.3566 123.95C98.0346 124.72 97.9646 125.798 97.9646 127.1C97.9646 128.402 98.0346 129.48 98.3566 130.25C98.8046 131.328 99.8126 132.14 101.199 132.14ZM101.199 131.244C100.387 131.244 99.5886 130.81 99.2246 129.872C98.9726 129.228 98.9166 128.136 98.9166 127.1C98.9166 126.064 98.9726 124.972 99.2246 124.328C99.5886 123.39 100.387 122.956 101.199 122.956C102.011 122.956 102.809 123.39 103.173 124.328C103.425 124.972 103.481 126.064 103.481 127.1C103.481 128.136 103.425 129.228 103.173 129.872C102.809 130.81 102.011 131.244 101.199 131.244ZM107.202 132C107.356 132 107.482 131.874 107.482 131.72V127.576C107.482 127.492 107.538 127.436 107.622 127.436H111.514C111.668 127.436 111.794 127.31 111.794 127.156V126.82C111.794 126.666 111.668 126.54 111.514 126.54H107.622C107.538 126.54 107.482 126.484 107.482 126.4V123.236C107.482 123.152 107.538 123.096 107.622 123.096H111.668C111.822 123.096 111.948 122.97 111.948 122.816V122.48C111.948 122.326 111.822 122.2 111.668 122.2H106.866C106.712 122.2 106.586 122.326 106.586 122.48V131.72C106.586 131.874 106.712 132 106.866 132H107.202ZM114.899 132C115.053 132 115.179 131.874 115.179 131.72V127.576C115.179 127.492 115.235 127.436 115.319 127.436H119.211C119.365 127.436 119.491 127.31 119.491 127.156V126.82C119.491 126.666 119.365 126.54 119.211 126.54H115.319C115.235 126.54 115.179 126.484 115.179 126.4V123.236C115.179 123.152 115.235 123.096 115.319 123.096H119.365C119.519 123.096 119.645 122.97 119.645 122.816V122.48C119.645 122.326 119.519 122.2 119.365 122.2H114.563C114.409 122.2 114.283 122.326 114.283 122.48V131.72C114.283 131.874 114.409 132 114.563 132H114.899ZM124.29 132.14C125.844 132.14 127.3 131.146 127.3 129.34C127.3 127.618 126.18 126.89 124.878 126.512C123.604 126.148 122.498 125.7 122.498 124.524C122.498 123.46 123.254 122.956 124.36 122.956C125.396 122.956 126.18 123.544 126.18 124.72V124.902C126.18 125.056 126.306 125.182 126.46 125.182H126.81C126.964 125.182 127.09 125.056 127.09 124.902V124.72C127.09 123.026 125.928 122.06 124.36 122.06C122.96 122.06 121.546 122.83 121.546 124.524C121.546 126.204 122.834 126.89 124.052 127.24C125.424 127.632 126.348 128.052 126.348 129.34C126.348 130.6 125.494 131.244 124.29 131.244C123.072 131.244 122.204 130.488 122.204 129.2V128.976C122.204 128.822 122.078 128.696 121.924 128.696H121.56C121.406 128.696 121.28 128.822 121.28 128.976V129.2C121.28 131.132 122.568 132.14 124.29 132.14ZM134.606 132C134.76 132 134.886 131.874 134.886 131.72V131.384C134.886 131.23 134.76 131.104 134.606 131.104H130.532C130.448 131.104 130.392 131.048 130.392 130.964V127.576C130.392 127.492 130.448 127.436 130.532 127.436H134.424C134.578 127.436 134.704 127.31 134.704 127.156V126.834C134.704 126.68 134.578 126.554 134.424 126.554H130.532C130.448 126.554 130.392 126.498 130.392 126.414V123.236C130.392 123.152 130.448 123.096 130.532 123.096H134.578C134.732 123.096 134.858 122.97 134.858 122.816V122.48C134.858 122.326 134.732 122.2 134.578 122.2H129.776C129.622 122.2 129.496 122.326 129.496 122.48V131.72C129.496 131.874 129.622 132 129.776 132H134.606ZM139.867 132C140.021 132 140.147 131.874 140.147 131.72V123.236C140.147 123.152 140.203 123.096 140.287 123.096H142.905C143.059 123.096 143.185 122.97 143.185 122.816V122.48C143.185 122.326 143.059 122.2 142.905 122.2H136.465C136.311 122.2 136.185 122.326 136.185 122.48V122.816C136.185 122.97 136.311 123.096 136.465 123.096H139.097C139.181 123.096 139.237 123.152 139.237 123.236V131.72C139.237 131.874 139.363 132 139.517 132H139.867Z" fill="#787878"/>
<path opacity="0.5" d="M94 186C145.086 186 186.5 144.586 186.5 93.5C186.5 42.4137 145.086 1 94 1C42.9137 1 1.5 42.4137 1.5 93.5C1.5 144.586 42.9137 186 94 186Z" stroke="#0F0F0F" stroke-width="1.49254" stroke-linecap="round" stroke-dasharray="0.07 7.46"/>
<defs>
<clipPath id="clip0_67_4262">
<rect width="24" height="24" fill="white" transform="translate(81.5 52)"/>
</clipPath>
</defs>
</svg>
