<svg width="188" height="187" viewBox="0 0 188 187" fill="none" xmlns="http://www.w3.org/2000/svg">
<path d="M86.5 58.1158V63.1919C86.5 64.7963 86.9862 66.363 87.8945 67.6856C88.8028 69.0082 90.0906 70.0245 91.588 70.6005L92.282 70.8672C92.7442 71.045 93.2559 71.045 93.718 70.8672L94.412 70.6005C95.9095 70.0245 97.1972 69.0082 98.1055 67.6856C99.0138 66.363 99.5 64.7963 99.5 63.1919V58.1158C99.5013 57.9248 99.4474 57.7375 99.3447 57.5764C99.242 57.4153 99.095 57.2874 98.9214 57.2078C97.0546 56.393 95.0368 55.9816 93 56.0005C90.9633 55.9816 88.9455 56.393 87.0787 57.2078C86.905 57.2874 86.758 57.4153 86.6553 57.5764C86.5527 57.7375 86.4987 57.9248 86.5 58.1158Z" stroke="#FF6275" stroke-width="1.1" stroke-linecap="round" stroke-linejoin="round"/>
<path d="M54.4515 109.966L58.232 110.034L58.3007 109.347L55.2763 109.003L57.8883 101.545H66.549L69.161 109.003L66.171 109.347L66.2741 110.034L70.7076 109.966L75.2098 110.034L75.2785 109.313L72.5978 109.038L63.9714 85.5987L62.2187 86.3548L53.7985 109.038L51.0834 109.313L51.1522 110.034L54.4515 109.966ZM62.3562 88.8637L62.4593 89.7916L66.2054 100.549H58.232L62.3562 88.8637ZM82.5261 109.966L87.5439 110.034L87.6126 109.313L84.0727 109.003V86.9391H89.5028L91.3587 92.2317H92.1492V85.908L82.4918 85.9768L72.9031 85.908V92.2317H73.6592L75.5151 86.9391H80.9796V109.003L77.3022 109.313L77.4053 110.034L82.5261 109.966ZM104.507 110.584C112.721 109.347 116.639 104.914 116.639 97.49C116.639 90.6164 111.93 85.3581 105.16 85.3581C96.9803 86.5954 93.0623 91.0289 93.0623 98.4524C93.0623 105.326 97.7708 110.584 104.507 110.584ZM105.469 109.313C99.6266 109.313 96.5335 103.504 96.5335 97.4213C96.5335 91.3382 99.1455 86.6298 104.232 86.6298C110.109 86.6298 113.168 92.4723 113.168 98.5211C113.168 104.604 110.556 109.313 105.469 109.313ZM122.296 109.966L135.218 110.034L135.803 103.676H135.047L132.847 108.969L123.774 109.038V86.9391L126.867 86.6298L126.798 85.908L122.296 85.9768L117.691 85.908L117.622 86.6298L120.681 86.9391V109.003L117.622 109.313L117.691 110.034L122.296 109.966Z" fill="#030922"/>
<path d="M64.2509 132C64.4049 132 64.5309 131.874 64.5309 131.72V123.754C64.5309 123.684 64.6149 123.67 64.6429 123.726L68.1289 131.762C68.2129 131.958 68.2689 132 68.4229 132H69.1509C69.3049 132 69.4309 131.874 69.4309 131.72V122.48C69.4309 122.326 69.3049 122.2 69.1509 122.2H68.8709C68.7169 122.2 68.5909 122.326 68.5909 122.48V130.376C68.5909 130.446 68.5069 130.46 68.4789 130.404L64.9929 122.438C64.9089 122.242 64.8529 122.2 64.6989 122.2H63.9709C63.8169 122.2 63.6909 122.326 63.6909 122.48V131.72C63.6909 131.874 63.8169 132 63.9709 132H64.2509ZM74.2582 132.14C75.6442 132.14 76.6522 131.328 77.1002 130.25C77.4222 129.48 77.4922 128.402 77.4922 127.1C77.4922 125.798 77.4222 124.72 77.1002 123.95C76.6522 122.872 75.6442 122.06 74.2582 122.06C72.8722 122.06 71.8642 122.872 71.4162 123.95C71.0942 124.72 71.0242 125.798 71.0242 127.1C71.0242 128.402 71.0942 129.48 71.4162 130.25C71.8642 131.328 72.8722 132.14 74.2582 132.14ZM74.2582 131.244C73.4462 131.244 72.6482 130.81 72.2842 129.872C72.0322 129.228 71.9762 128.136 71.9762 127.1C71.9762 126.064 72.0322 124.972 72.2842 124.328C72.6482 123.39 73.4462 122.956 74.2582 122.956C75.0702 122.956 75.8682 123.39 76.2322 124.328C76.4842 124.972 76.5402 126.064 76.5402 127.1C76.5402 128.136 76.4842 129.228 76.2322 129.872C75.8682 130.81 75.0702 131.244 74.2582 131.244ZM92.4527 132C92.6067 132 92.7327 131.874 92.7327 131.72V131.426C92.7327 131.272 92.6067 131.146 92.4527 131.146H90.7587C90.6747 131.146 90.6187 131.09 90.6187 131.006V122.48C90.6187 122.326 90.4927 122.2 90.3387 122.2H89.9327C89.8347 122.2 89.7227 122.256 89.6527 122.326L87.0347 124.888C86.9227 125 86.9087 125.084 86.9087 125.322V125.672C86.9087 125.826 87.0907 125.896 87.2167 125.784L89.6527 123.502C89.6947 123.46 89.7787 123.474 89.7787 123.558V131.006C89.7787 131.09 89.7227 131.146 89.6387 131.146H87.5387C87.3847 131.146 87.2587 131.272 87.2587 131.426V131.72C87.2587 131.874 87.3847 132 87.5387 132H92.4527ZM99.884 132C100.038 132 100.164 131.874 100.164 131.72V131.426C100.164 131.272 100.038 131.146 99.884 131.146H95.81C95.67 131.146 95.628 131.006 95.698 130.922L98.764 127.52C99.492 126.708 99.94 125.84 99.94 124.762C99.94 123.124 98.806 122.06 97.308 122.06C95.81 122.06 94.648 123.25 94.648 124.762V124.972C94.648 125.126 94.774 125.252 94.928 125.252H95.25C95.404 125.252 95.53 125.126 95.53 124.972V124.762C95.53 123.866 96.216 122.886 97.308 122.886C98.498 122.886 99.044 123.81 99.044 124.762C99.044 125.84 98.61 126.386 98.036 127.058L94.662 130.852C94.606 130.908 94.536 130.992 94.536 131.202V131.72C94.536 131.874 94.662 132 94.816 132H99.884ZM105.047 132.14C106.503 132.14 107.399 131.258 107.777 130.152C108.071 129.27 108.099 128.374 108.099 127.1C108.099 125.826 108.071 124.93 107.777 124.048C107.399 122.942 106.503 122.06 105.047 122.06C103.591 122.06 102.695 122.942 102.317 124.048C102.023 124.93 101.995 125.826 101.995 127.1C101.995 128.374 102.023 129.27 102.317 130.152C102.695 131.258 103.591 132.14 105.047 132.14ZM105.047 131.314C104.235 131.314 103.395 130.74 103.101 129.62C102.933 128.99 102.905 128.136 102.905 127.1C102.905 126.064 102.933 125.21 103.101 124.58C103.395 123.46 104.235 122.886 105.047 122.886C105.859 122.886 106.699 123.46 106.993 124.58C107.161 125.21 107.189 126.064 107.189 127.1C107.189 128.136 107.161 128.99 106.993 129.62C106.699 130.74 105.859 131.314 105.047 131.314ZM112.703 132.14C114.327 132.14 115.573 130.852 115.573 129.228C115.573 128.346 115.265 127.52 114.537 127.016C114.397 126.918 114.439 126.778 114.551 126.68C115.069 126.218 115.363 125.532 115.363 124.762C115.363 123.25 114.229 122.06 112.703 122.06C111.163 122.06 109.973 123.25 109.973 124.762V124.972C109.973 125.126 110.099 125.252 110.253 125.252H110.575C110.729 125.252 110.855 125.126 110.855 124.972V124.762C110.855 123.894 111.499 122.956 112.703 122.956C113.851 122.956 114.425 123.824 114.425 124.762C114.425 125.686 113.795 126.442 112.731 126.442H112.633C112.479 126.442 112.353 126.568 112.353 126.722V127.03C112.353 127.184 112.479 127.31 112.633 127.31H112.731C114.075 127.31 114.635 128.234 114.635 129.228C114.635 130.334 113.907 131.244 112.703 131.244C111.527 131.244 110.645 130.334 110.645 129.228V129.13C110.645 128.976 110.519 128.85 110.365 128.85H110.043C109.889 128.85 109.763 128.976 109.763 129.13V129.228C109.763 130.852 111.051 132.14 112.703 132.14ZM121.884 132C122.038 132 122.164 131.874 122.164 131.72V130.18C122.164 130.096 122.22 130.04 122.304 130.04H123.088C123.242 130.04 123.368 129.914 123.368 129.76V129.494C123.368 129.34 123.242 129.214 123.088 129.214H122.304C122.22 129.214 122.164 129.158 122.164 129.074V122.48C122.164 122.326 122.038 122.2 121.884 122.2H121.31C121.156 122.2 121.1 122.242 121.016 122.396L117.46 128.892C117.362 129.074 117.236 129.326 117.236 129.522V129.76C117.236 129.914 117.362 130.04 117.516 130.04H121.198C121.282 130.04 121.338 130.096 121.338 130.18V131.72C121.338 131.874 121.464 132 121.618 132H121.884ZM118.3 129.214C118.216 129.214 118.202 129.186 118.244 129.102L121.226 123.586C121.254 123.53 121.338 123.53 121.338 123.614V129.074C121.338 129.158 121.282 129.214 121.198 129.214H118.3Z" fill="#787878"/>
<path opacity="0.5" d="M94 186C145.086 186 186.5 144.586 186.5 93.5C186.5 42.4137 145.086 1 94 1C42.9137 1 1.5 42.4137 1.5 93.5C1.5 144.586 42.9137 186 94 186Z" stroke="#0F0F0F" stroke-width="1.49254" stroke-linecap="round" stroke-dasharray="0.07 7.46"/>
</svg>
