<svg fill="none" height="30" viewBox="0 0 30 30" width="30" xmlns="http://www.w3.org/2000/svg"><path clip-rule="evenodd" d="m3 14.9539c1.02395-.1791 2.05291-.3181 3.08089-.4569h.00001c.69101-.0933 1.38157-.1866 2.06986-.2919 1.48805-.2278 2.98674-.3566 4.47754-.4847.2246-.0193.449-.0386.6732-.0582 1.7091-.3392 3.4382-.4645 5.1648-.3745 1.771.1985 3.5084.7605 5.1508 1.6662v.4306c-1.6424.9057-3.3798 1.4677-5.1508 1.6661-1.7266.0901-3.4557-.0352-5.1648-.3744-1.7122-.1498-3.42446-.337-5.15074-.5429s-3.43852-.4493-5.15076-.7488zm17.2212 12.8027c.272-.6347.5708-1.2426.8686-1.8484l.0001-.0001c.1325-.2696.2648-.5388.3945-.8097.421-.8799.8982-1.7223 1.4034-2.546.1839-.2997.3362-.6292.4859-.9533.2618-.5664.5159-1.1162.9176-1.4615.7592-.6253 1.634-.9559 2.5263-.9548l.1824.2621c-.0088 1.19-.2824 2.3498-.7859 3.3322-.2843.6407-.7603 1.0074-1.2368 1.3745-.2056.1584-.4114.3169-.6018.4975-.6315.599-1.2771 1.1794-1.9368 1.741-.6596.5616-1.3333 1.1045-2.049 1.6099zm1.5857-24.67517c-.4259-.37155-.8507-.74218-1.3049-1.08145l-.1965.24337c.379.936.786 1.83456 1.207 2.7144.4211.87985.8702 1.74097 1.3193 2.58337.1354.25399.2542.52841.373.80273.2752.63547.5501 1.2704 1.0305 1.64959.7346.67686 1.6053 1.04226 2.4982 1.04836l.1965-.2434c.0142-1.1925-.2347-2.36426-.7158-3.3696-.2589-.53584-.6711-.87475-1.0958-1.2239-.2429-.19975-.49-.40286-.7147-.6481-.6175-.67393-1.221-1.31041-1.8947-1.87201-.2376-.1981-.47-.40087-.7021-.60336z" fill="#fff" fill-rule="evenodd"/></svg>