<svg fill="none" height="30" viewBox="0 0 30 30" width="30" xmlns="http://www.w3.org/2000/svg"><path clip-rule="evenodd" d="m23.9191 15.503c-.691.0934-1.3816.1866-2.0699.292-1.488.2277-2.9867.3565-4.4775.4847-.2246.0193-.449.0386-.6732.0582-1.7091.3391-3.4382.4645-5.1648.3744-1.77099-.1984-3.50839-.7604-5.15078-1.6662v-.4305c1.64239-.9058 3.37979-1.4678 5.15078-1.6662 1.7266-.0901 3.4557.0353 5.1648.3744 1.7122.1498 3.4245.337 5.1507.5429 1.7263.206 3.4386.4493 5.1508.7489v.4305c-1.0239.1792-2.0529.3181-3.0809.4569zm-14.14032-13.25964c-.27194.63477-.57077 1.24265-.86857 1.84844l-.00004.00008c-.13253.2696-.26486.53878-.39452.80974-.42104.87984-.89822 1.72225-1.40347 2.54593-.18387.29975-.33614.62926-.4859.95332-.26176.56643-.51584 1.11626-.91757 1.46158-.75919.62525-1.634.95585-2.52625.95475l-.18245-.2621c.00883-1.19004.28237-2.34978.78595-3.33219.28429-.64071.7603-1.00743 1.23673-1.37446l.00001-.00001c.20565-.15843.41138-.31693.6018-.49754.63157-.59905 1.27716-1.17937 1.93679-1.74097s1.3333-1.10449 2.04907-1.60993zm-1.58568 24.67514c.42585.3716.85067.7422 1.30488 1.0815l.19649-.2434c-.37895-.936-.78596-1.8346-1.207-2.7144-.42105-.8798-.87016-1.741-1.31928-2.5834-.13541-.254-.25424-.5284-.37302-.8027-.27517-.6355-.55011-1.2704-1.03046-1.6496-.73464-.6769-1.60534-1.0423-2.4982-1.0483l-.19649.2434c-.01418 1.1925.23472 2.3642.71577 3.3696.25889.5358.67111.8747 1.09577 1.2239.24296.1997.49.4028.71473.6481.61753.6739 1.22103 1.3104 1.8947 1.872.23763.1981.47002.4008.70211.6033z" fill="#fff" fill-rule="evenodd"/></svg>